<svg width="24px" height="24px" fill='#fff' xmlns="http://www.w3.org/2000/svg" viewBox="0 0 24 24" >
<circle cx="12" cy="12" r="8" fill='none' stroke='#fff' stroke-width='1'/>
<circle cx="23" cy="12" r="0.8"/>
<circle cx="1" cy="12" r="0.8"/>
<circle cx="12" cy="1" r="0.8"/>
<circle cx="12" cy="23" r="0.8"/>
<circle cx="4" cy="4.5" r="0.8"/>
<circle cx="20" cy="4.5" r="0.8"/>
<circle cx="4" cy="19.5" r="0.8"/>
<circle cx="20" cy="19.5" r="0.8"/>
<path stroke='#fff' stroke-width='0.5' d="M12.4,12.5l2.7,2.7c0.2,0.2,0.5,0.4,0.5,0.4s-0.2-0.2-0.4-0.5L12.4,12.5C12.2,12.2,12,12,12,12
	S12.2,12.2,12.4,12.5z"/>
<path stroke='#fff' stroke-width='0.5' d="M11.9,7.6v3.8c0,0.3,0,0.6,0.1,0.6s0.1-0.3,0.1-0.6V7.6C12.1,7.3,12,7,12,7S11.9,7.3,11.9,7.6z"/>
</svg>

