<svg width="32px" height="32px" viewBox="0 0 32 32" xmlns="http://www.w3.org/2000/svg">
  <path d="M28 30H2" stroke="grey" stroke-width="3" stroke-linecap="round" stroke-linejoin="round"/>
  <path d="M16 2V12" stroke="grey" stroke-width="2.5" stroke-linecap="round" stroke-linejoin="round" />
  <path d="M11 7L16 2L21 7" stroke="grey" stroke-width="2.5" stroke-linecap="round" stroke-linejoin="round" fill='none'/>
  <path d="M16,26H14a9.9268,9.9268,0,0,1,3.7539-7.804A7.89,7.89,0,0,0,16,18a8.0092,8.0092,0,0,0-8,8H6A10.0113,10.0113,0,0,1,16,16a9.8923,9.8923,0,0,1,4.4458,1.0515,1,1,0,0,1,0,1.79A7.9567,7.9567,0,0,0,16,26Z" fill="grey"/>
</svg>