<svg width="24" height="24" viewBox="0 0 24 24" fill="none" xmlns="http://www.w3.org/2000/svg">
	<path d="M23.7,13.8c-0.3,0.2-0.7,0.3-1.1,0.4c-0.1,1.8-1.5,3.2-3.3,3.2H6c-2.4,0-4.4-2-4.4-4.5s2-4.5,4.4-4.5
		c0.4,0,0.8,0.1,1.2,0.2l0.4,0.1l0.2-0.4c1-1.9,3-3.2,5.4-3.2c0.2,0,0.4,0,0.5,0.1c0-0.4,0.1-0.8,0.2-1.1c-0.3,0-0.5,0-0.8,0
		c-2.6,0-4.8,1.4-6.1,3.5C6.7,7.4,6.4,7.3,6,7.3c-3.1,0-5.5,2.5-5.5,5.6S3,18.5,6,18.5h13.3c2.4,0,4.4-2,4.4-4.5
		C23.7,14,23.7,13.9,23.7,13.8z" fill='#fff'/>
  <text x='20' y='10.5' text-anchor='middle' font-size='9' font-weight='300' fill='#fff'>%</text>
</svg>
